<mxfile host="app.diagrams.net" agent="Mozilla/5.0 (Windows NT 10.0; Win64; x64) AppleWebKit/537.36 (KHTML, like Gecko) Chrome/134.0.0.0 Safari/537.36" version="26.1.0">
  <diagram name="Pagina-1" id="x3gagckxM-HPnO9aR5ET">
    <mxGraphModel dx="1674" dy="772" grid="1" gridSize="10" guides="1" tooltips="1" connect="1" arrows="1" fold="1" page="1" pageScale="1" pageWidth="827" pageHeight="1169" math="0" shadow="0">
      <root>
        <mxCell id="0" />
        <mxCell id="1" parent="0" />
        <mxCell id="oLBizlv3ov2eJKBaFw3D-1" value="Charmander" style="swimlane;fontStyle=1;align=center;verticalAlign=top;childLayout=stackLayout;horizontal=1;startSize=26;horizontalStack=0;resizeParent=1;resizeParentMax=0;resizeLast=0;collapsible=1;marginBottom=0;whiteSpace=wrap;html=1;" vertex="1" parent="1">
          <mxGeometry x="120" y="170" width="160" height="190" as="geometry" />
        </mxCell>
        <mxCell id="oLBizlv3ov2eJKBaFw3D-2" value="+ NickNmae : String&lt;div&gt;+ strength : String&lt;/div&gt;&lt;div&gt;+ weakness : String&lt;/div&gt;" style="text;strokeColor=none;fillColor=none;align=left;verticalAlign=top;spacingLeft=4;spacingRight=4;overflow=hidden;rotatable=0;points=[[0,0.5],[1,0.5]];portConstraint=eastwest;whiteSpace=wrap;html=1;" vertex="1" parent="oLBizlv3ov2eJKBaFw3D-1">
          <mxGeometry y="26" width="160" height="94" as="geometry" />
        </mxCell>
        <mxCell id="oLBizlv3ov2eJKBaFw3D-3" value="" style="line;strokeWidth=1;fillColor=none;align=left;verticalAlign=middle;spacingTop=-1;spacingLeft=3;spacingRight=3;rotatable=0;labelPosition=right;points=[];portConstraint=eastwest;strokeColor=inherit;" vertex="1" parent="oLBizlv3ov2eJKBaFw3D-1">
          <mxGeometry y="120" width="160" height="8" as="geometry" />
        </mxCell>
        <mxCell id="oLBizlv3ov2eJKBaFw3D-4" value="+ Pokemon()&lt;div&gt;+ battleCry(): void&lt;/div&gt;" style="text;strokeColor=none;fillColor=none;align=left;verticalAlign=top;spacingLeft=4;spacingRight=4;overflow=hidden;rotatable=0;points=[[0,0.5],[1,0.5]];portConstraint=eastwest;whiteSpace=wrap;html=1;" vertex="1" parent="oLBizlv3ov2eJKBaFw3D-1">
          <mxGeometry y="128" width="160" height="62" as="geometry" />
        </mxCell>
        <mxCell id="oLBizlv3ov2eJKBaFw3D-10" value="Pokeball" style="swimlane;fontStyle=1;align=center;verticalAlign=top;childLayout=stackLayout;horizontal=1;startSize=26;horizontalStack=0;resizeParent=1;resizeParentMax=0;resizeLast=0;collapsible=1;marginBottom=0;whiteSpace=wrap;html=1;" vertex="1" parent="1">
          <mxGeometry x="510" y="120" width="200" height="160" as="geometry" />
        </mxCell>
        <mxCell id="oLBizlv3ov2eJKBaFw3D-11" value="+ charmander: Charmander&lt;div&gt;+ hasCharmanderInside :bool&lt;/div&gt;" style="text;strokeColor=none;fillColor=none;align=left;verticalAlign=top;spacingLeft=4;spacingRight=4;overflow=hidden;rotatable=0;points=[[0,0.5],[1,0.5]];portConstraint=eastwest;whiteSpace=wrap;html=1;" vertex="1" parent="oLBizlv3ov2eJKBaFw3D-10">
          <mxGeometry y="26" width="200" height="54" as="geometry" />
        </mxCell>
        <mxCell id="oLBizlv3ov2eJKBaFw3D-12" value="" style="line;strokeWidth=1;fillColor=none;align=left;verticalAlign=middle;spacingTop=-1;spacingLeft=3;spacingRight=3;rotatable=0;labelPosition=right;points=[];portConstraint=eastwest;strokeColor=inherit;" vertex="1" parent="oLBizlv3ov2eJKBaFw3D-10">
          <mxGeometry y="80" width="200" height="8" as="geometry" />
        </mxCell>
        <mxCell id="oLBizlv3ov2eJKBaFw3D-13" value="&lt;div&gt;+ Pokeball()&lt;/div&gt;+ Open(): Void&lt;div&gt;+ Close() : void&lt;/div&gt;" style="text;strokeColor=none;fillColor=none;align=left;verticalAlign=top;spacingLeft=4;spacingRight=4;overflow=hidden;rotatable=0;points=[[0,0.5],[1,0.5]];portConstraint=eastwest;whiteSpace=wrap;html=1;" vertex="1" parent="oLBizlv3ov2eJKBaFw3D-10">
          <mxGeometry y="88" width="200" height="72" as="geometry" />
        </mxCell>
        <mxCell id="oLBizlv3ov2eJKBaFw3D-14" value="Trainer" style="swimlane;fontStyle=1;align=center;verticalAlign=top;childLayout=stackLayout;horizontal=1;startSize=26;horizontalStack=0;resizeParent=1;resizeParentMax=0;resizeLast=0;collapsible=1;marginBottom=0;whiteSpace=wrap;html=1;" vertex="1" parent="1">
          <mxGeometry x="470" y="350" width="160" height="200" as="geometry" />
        </mxCell>
        <mxCell id="oLBizlv3ov2eJKBaFw3D-15" value="+ Name: String&lt;div&gt;+ belt: List&amp;lt;Pokeball&amp;gt;&lt;/div&gt;" style="text;strokeColor=none;fillColor=none;align=left;verticalAlign=top;spacingLeft=4;spacingRight=4;overflow=hidden;rotatable=0;points=[[0,0.5],[1,0.5]];portConstraint=eastwest;whiteSpace=wrap;html=1;" vertex="1" parent="oLBizlv3ov2eJKBaFw3D-14">
          <mxGeometry y="26" width="160" height="74" as="geometry" />
        </mxCell>
        <mxCell id="oLBizlv3ov2eJKBaFw3D-16" value="" style="line;strokeWidth=1;fillColor=none;align=left;verticalAlign=middle;spacingTop=-1;spacingLeft=3;spacingRight=3;rotatable=0;labelPosition=right;points=[];portConstraint=eastwest;strokeColor=inherit;" vertex="1" parent="oLBizlv3ov2eJKBaFw3D-14">
          <mxGeometry y="100" width="160" height="8" as="geometry" />
        </mxCell>
        <mxCell id="oLBizlv3ov2eJKBaFw3D-17" value="+ Trainer()&lt;div&gt;+ Throwpokeball() : void&lt;/div&gt;&lt;div&gt;+ returnPokemon(): void&amp;nbsp;&lt;/div&gt;" style="text;strokeColor=none;fillColor=none;align=left;verticalAlign=top;spacingLeft=4;spacingRight=4;overflow=hidden;rotatable=0;points=[[0,0.5],[1,0.5]];portConstraint=eastwest;whiteSpace=wrap;html=1;" vertex="1" parent="oLBizlv3ov2eJKBaFw3D-14">
          <mxGeometry y="108" width="160" height="92" as="geometry" />
        </mxCell>
        <mxCell id="oLBizlv3ov2eJKBaFw3D-20" value="" style="endArrow=diamondThin;endFill=1;endSize=24;html=1;rounded=0;entryX=0.01;entryY=0.088;entryDx=0;entryDy=0;entryPerimeter=0;exitX=1.006;exitY=0.063;exitDx=0;exitDy=0;exitPerimeter=0;" edge="1" parent="1" source="oLBizlv3ov2eJKBaFw3D-1" target="oLBizlv3ov2eJKBaFw3D-10">
          <mxGeometry width="160" relative="1" as="geometry">
            <mxPoint x="300" y="130" as="sourcePoint" />
            <mxPoint x="460" y="130" as="targetPoint" />
            <Array as="points" />
          </mxGeometry>
        </mxCell>
        <mxCell id="oLBizlv3ov2eJKBaFw3D-21" value="" style="endArrow=diamondThin;endFill=1;endSize=24;html=1;rounded=0;entryX=0.419;entryY=-0.01;entryDx=0;entryDy=0;entryPerimeter=0;exitX=0.25;exitY=1.042;exitDx=0;exitDy=0;exitPerimeter=0;" edge="1" parent="1" source="oLBizlv3ov2eJKBaFw3D-13" target="oLBizlv3ov2eJKBaFw3D-14">
          <mxGeometry width="160" relative="1" as="geometry">
            <mxPoint x="350" y="335" as="sourcePoint" />
            <mxPoint x="572" y="280" as="targetPoint" />
            <Array as="points" />
          </mxGeometry>
        </mxCell>
      </root>
    </mxGraphModel>
  </diagram>
</mxfile>
